<svg width="58" height="58" viewBox="0 0 58 58" fill="none" xmlns="http://www.w3.org/2000/svg">
<path d="M55.8523 37.6057C52.9531 35.0828 50.4302 32.0465 47.1052 30.0428C43.7744 28.039 40.1956 29.2757 37.8856 32.2653C35.6544 35.1557 34.2602 39.0436 30.8915 40.8665C26.741 43.1153 24.3027 39.4899 20.8406 38.0374C16.976 36.4186 14.0419 39.3295 11.7844 42.1265C9.52396 44.9265 7.23438 47.6974 4.93605 50.4682M41.5511 2.02173H16.3248C2.02149 2.02173 2.02149 2.02173 2.02149 10.8301V40.8221C2.02149 55.8546 1.9541 56.0454 16.3248 55.8546H47.0323C55.8523 55.8546 55.8523 55.8546 55.8523 40.8665L55.8544 10.8301C55.8544 2.02173 55.8544 2.02173 41.5511 2.02173ZM25.2173 19.6244C25.2173 22.5965 22.8052 25.0086 19.8332 25.0086C16.864 25.0086 14.4519 22.5965 14.4519 19.6244C14.4519 16.6523 16.864 14.2402 19.8332 14.2402C22.8052 14.2402 25.2173 16.6523 25.2173 19.6244Z" stroke="#01384D" stroke-width="4" stroke-linecap="round" stroke-linejoin="round"/>
</svg>
