<svg width="143" height="30" viewBox="0 0 143 30" fill="none" xmlns="http://www.w3.org/2000/svg">
<path d="M68.402 24.178C67.8447 24.7353 67.1187 25.014 66.224 25.014C65.344 25.014 64.64 24.7207 64.112 24.134C63.584 23.562 63.32 22.8067 63.32 21.868C63.32 20.9147 63.4887 19.822 63.826 18.59L64.816 15.334C63.584 16.8887 62.4547 18.3773 61.428 19.8C59.404 22.6013 58.0327 24.4787 57.314 25.432L56.918 25.322L56.06 14.674L54.3 17.886C52.628 21.0393 51.2273 23.1147 50.098 24.112C48.9833 25.124 47.4947 25.63 45.632 25.63C44.048 25.63 42.7353 25.0653 41.694 23.936C40.8727 23.012 40.462 21.9047 40.462 20.614C40.462 20.3793 40.4767 20.1373 40.506 19.888L40.946 19.932C40.9167 20.1667 40.902 20.394 40.902 20.614C40.902 21.802 41.276 22.8067 42.024 23.628C42.9773 24.6693 44.18 25.19 45.632 25.19C47.3773 25.19 48.7853 24.6987 49.856 23.716C50.9267 22.748 52.276 20.7387 53.904 17.688L57.864 10.494C56.3093 10.4647 54.7987 10.2227 53.332 9.768C51.88 9.29867 50.5747 9.064 49.416 9.064C48.272 9.064 47.3113 9.46733 46.534 10.274C45.7567 11.0807 45.368 12.122 45.368 13.398H44.928C44.928 11.99 45.3533 10.846 46.204 9.966C47.0693 9.07133 48.184 8.624 49.548 8.624C50.648 8.624 51.9533 8.866 53.464 9.35C54.9893 9.81933 56.632 10.054 58.392 10.054L59.316 21.934L59.756 21.318C62.8507 17.0647 65.2413 14.0287 66.928 12.21C68.6147 10.3767 69.9787 9.46 71.02 9.46V9.9C70.5653 9.9 69.986 10.1493 69.282 10.648C69.1793 10.9707 68.8347 12.0927 68.248 14.014C67.6613 15.9207 67.1333 17.5927 66.664 19.03C66.2093 20.4527 65.982 21.6187 65.982 22.528C65.982 23.4373 66.1433 24.112 66.466 24.552C66.774 24.552 67.06 24.486 67.324 24.354C67.6027 24.2367 67.808 24.112 67.94 23.98L68.116 23.804L68.402 24.178ZM78.0679 22.198C76.7772 22.198 76.0732 21.6333 75.9559 20.504C75.3106 21.6333 74.4966 22.198 73.5139 22.198C72.5312 22.198 71.7466 21.9047 71.1599 21.318C70.5879 20.7167 70.3019 19.8807 70.3019 18.81C70.3019 17.138 70.7126 15.8253 71.5339 14.872C72.3552 13.9187 73.4186 13.442 74.7239 13.442C75.7946 13.442 76.5059 13.948 76.8579 14.96C76.9312 14.52 77.0119 14.08 77.0999 13.64C78.1852 13.64 78.9919 13.596 79.5199 13.508L79.8059 13.442L78.2879 21.758C78.7279 21.714 79.0946 21.5087 79.3879 21.142L79.7179 21.406C79.2779 21.934 78.7279 22.198 78.0679 22.198ZM72.7879 19.932C72.7879 20.592 72.8686 21.054 73.0299 21.318C73.2059 21.5673 73.4699 21.692 73.8219 21.692C74.1739 21.692 74.5332 21.5013 74.8999 21.12C75.3839 20.6213 75.7726 19.9907 76.0659 19.228C76.1099 19.0373 76.1906 18.5827 76.3079 17.864C76.4399 17.1307 76.5499 16.5293 76.6379 16.06C76.5939 15.5027 76.4399 15.0187 76.1759 14.608C75.9119 14.1973 75.5819 13.992 75.1859 13.992C74.4672 13.992 73.8879 14.6373 73.4479 15.928C73.0079 17.204 72.7879 18.5387 72.7879 19.932ZM82.3222 13.64L82.9162 10.384C84.0015 10.384 84.8082 10.34 85.3362 10.252L85.6222 10.186C85.4168 11.2127 85.1895 12.364 84.9402 13.64H87.6682L87.6242 14.036H84.8742C84.1408 17.82 83.7742 20.1007 83.7742 20.878C83.7742 21.3473 84.0235 21.582 84.5222 21.582C85.0208 21.582 85.4755 21.2667 85.8862 20.636C86.2968 20.0053 86.5902 19.3233 86.7662 18.59L87.1622 18.722C86.6195 21.0393 85.4975 22.198 83.7962 22.198C83.0922 22.198 82.5055 22.0073 82.0362 21.626C81.5668 21.23 81.3322 20.6873 81.3322 19.998C81.3322 19.294 81.6328 17.3067 82.2342 14.036H81.1562L81.2002 13.64H82.3222ZM88.18 14.234C88.62 13.706 89.17 13.442 89.83 13.442C90.5047 13.442 91.0253 13.6107 91.392 13.948C91.7587 14.2853 91.942 14.762 91.942 15.378V15.51C92.602 14.1313 93.46 13.442 94.516 13.442C95.6453 13.442 96.21 14.0287 96.21 15.202C96.21 15.686 96.0487 16.1993 95.726 16.742C95.4033 17.2847 95.0807 17.8053 94.758 18.304C94.4353 18.788 94.274 19.2207 94.274 19.602H93.746C93.746 19.0593 94.0613 18.326 94.692 17.402C95.3227 16.478 95.638 15.7667 95.638 15.268C95.638 14.7547 95.5353 14.41 95.33 14.234C95.1393 14.0433 94.846 13.948 94.45 13.948C94.0687 13.948 93.6873 14.1167 93.306 14.454C92.9393 14.7913 92.6313 15.2167 92.382 15.73C91.986 16.4927 91.722 17.116 91.59 17.6V17.622L90.798 22H88.158L89.61 13.882C89.17 13.926 88.8033 14.1313 88.51 14.498L88.18 14.234ZM104.429 22.198C103.139 22.198 102.435 21.6333 102.317 20.504C101.672 21.6333 100.858 22.198 99.8752 22.198C98.8926 22.198 98.1079 21.9047 97.5212 21.318C96.9492 20.7167 96.6632 19.8807 96.6632 18.81C96.6632 17.138 97.0739 15.8253 97.8952 14.872C98.7166 13.9187 99.7799 13.442 101.085 13.442C102.156 13.442 102.867 13.948 103.219 14.96C103.293 14.52 103.373 14.08 103.461 13.64C104.547 13.64 105.353 13.596 105.881 13.508L106.167 13.442L104.649 21.758C105.089 21.714 105.456 21.5087 105.749 21.142L106.079 21.406C105.639 21.934 105.089 22.198 104.429 22.198ZM99.1492 19.932C99.1492 20.592 99.2299 21.054 99.3912 21.318C99.5672 21.5673 99.8312 21.692 100.183 21.692C100.535 21.692 100.895 21.5013 101.261 21.12C101.745 20.6213 102.134 19.9907 102.427 19.228C102.471 19.0373 102.552 18.5827 102.669 17.864C102.801 17.1307 102.911 16.5293 102.999 16.06C102.955 15.5027 102.801 15.0187 102.537 14.608C102.273 14.1973 101.943 13.992 101.547 13.992C100.829 13.992 100.249 14.6373 99.8092 15.928C99.3692 17.204 99.1492 18.5387 99.1492 19.932ZM109.387 21.626C110.839 21.626 111.565 20.5553 111.565 18.414C111.565 17.886 111.485 17.2627 111.323 16.544C111.177 15.8253 111.089 15.378 111.059 15.202C110.165 16.126 109.16 16.6833 108.045 16.874V16.346C109.101 16.1113 110.091 15.51 111.015 14.542V14.454C111.015 14.102 111.067 13.7573 111.169 13.42C111.272 13.0827 111.375 12.8333 111.477 12.672L111.631 12.43H112.159C112.159 13.0753 112.262 13.6693 112.467 14.212C112.673 14.74 112.9 15.1727 113.149 15.51C113.399 15.8327 113.626 16.2653 113.831 16.808C114.037 17.336 114.139 17.9227 114.139 18.568C114.139 19.6093 113.743 20.4747 112.951 21.164C112.174 21.8533 111.235 22.198 110.135 22.198C109.035 22.198 108.199 21.9487 107.627 21.45C107.07 20.9513 106.791 20.3793 106.791 19.734C106.791 19.074 106.953 18.6047 107.275 18.326C107.598 18.0327 107.979 17.886 108.419 17.886C108.859 17.886 109.219 18.0327 109.497 18.326C109.791 18.6047 109.937 18.9713 109.937 19.426C109.937 19.866 109.798 20.24 109.519 20.548C109.241 20.856 108.881 21.01 108.441 21.01C108.251 21.01 108.053 20.9807 107.847 20.922C108.17 21.3913 108.683 21.626 109.387 21.626ZM117.487 21.626C118.939 21.626 119.665 20.5553 119.665 18.414C119.665 17.886 119.584 17.2627 119.423 16.544C119.276 15.8253 119.188 15.378 119.159 15.202C118.264 16.126 117.26 16.6833 116.145 16.874V16.346C117.201 16.1113 118.191 15.51 119.115 14.542V14.454C119.115 14.102 119.166 13.7573 119.269 13.42C119.372 13.0827 119.474 12.8333 119.577 12.672L119.731 12.43H120.259C120.259 13.0753 120.362 13.6693 120.567 14.212C120.772 14.74 121 15.1727 121.249 15.51C121.498 15.8327 121.726 16.2653 121.931 16.808C122.136 17.336 122.239 17.9227 122.239 18.568C122.239 19.6093 121.843 20.4747 121.051 21.164C120.274 21.8533 119.335 22.198 118.235 22.198C117.135 22.198 116.299 21.9487 115.727 21.45C115.17 20.9513 114.891 20.3793 114.891 19.734C114.891 19.074 115.052 18.6047 115.375 18.326C115.698 18.0327 116.079 17.886 116.519 17.886C116.959 17.886 117.318 18.0327 117.597 18.326C117.89 18.6047 118.037 18.9713 118.037 19.426C118.037 19.866 117.898 20.24 117.619 20.548C117.34 20.856 116.981 21.01 116.541 21.01C116.35 21.01 116.152 20.9807 115.947 20.922C116.27 21.3913 116.783 21.626 117.487 21.626ZM124.883 13.882C124.531 13.882 124.164 14.0873 123.783 14.498L123.453 14.234C123.555 14.0287 123.783 13.8453 124.135 13.684C124.487 13.5227 124.875 13.442 125.301 13.442C126.635 13.442 127.303 14.0433 127.303 15.246C127.303 15.7593 127.171 16.676 126.907 17.996C126.643 19.316 126.511 20.1813 126.511 20.592C126.511 21.2227 126.811 21.538 127.413 21.538C127.838 21.538 128.249 21.2887 128.645 20.79C129.055 20.2913 129.407 19.602 129.701 18.722L130.625 13.64C131.71 13.64 132.502 13.596 133.001 13.508L133.287 13.442L131.813 21.758C132.253 21.714 132.619 21.5087 132.913 21.142L133.243 21.406C132.803 21.934 132.253 22.198 131.593 22.198C130.933 22.198 130.419 22.0367 130.053 21.714C129.686 21.3913 129.495 20.9367 129.481 20.35C128.865 21.582 127.955 22.198 126.753 22.198C125.887 22.198 125.213 21.956 124.729 21.472C124.245 20.9733 124.003 20.2913 124.003 19.426C124.003 18.9713 124.142 18.0987 124.421 16.808C124.699 15.5027 124.853 14.5273 124.883 13.882ZM139.249 13.442C141.112 13.442 142.043 14.1827 142.043 15.664C142.043 16.588 141.603 17.292 140.723 17.776C139.858 18.2453 138.619 18.4873 137.005 18.502C136.976 19.03 136.961 19.448 136.961 19.756C136.961 20.416 137.108 20.9073 137.401 21.23C137.709 21.538 138.091 21.692 138.545 21.692C139 21.692 139.411 21.604 139.777 21.428C140.159 21.252 140.459 21.0467 140.679 20.812C140.899 20.5627 141.09 20.306 141.251 20.042C141.545 19.558 141.691 19.25 141.691 19.118L142.087 19.294C142.043 19.5287 141.911 19.844 141.691 20.24C141.471 20.6213 141.229 20.9367 140.965 21.186C140.701 21.4353 140.313 21.67 139.799 21.89C139.286 22.0953 138.714 22.198 138.083 22.198C136.895 22.198 135.993 21.9193 135.377 21.362C134.776 20.79 134.475 20.0127 134.475 19.03C134.475 17.2847 134.908 15.9207 135.773 14.938C136.639 13.9407 137.797 13.442 139.249 13.442ZM141.493 15.664C141.493 15.18 141.347 14.784 141.053 14.476C140.775 14.1533 140.349 13.992 139.777 13.992C139.22 13.992 138.67 14.3293 138.127 15.004C137.599 15.6787 137.247 16.676 137.071 17.996C140.019 17.9813 141.493 17.204 141.493 15.664Z" fill="white"/>
<g clip-path="url(#clip0_452_592)">
<path d="M26.2702 12.4304L26.7802 14.4304L26.5002 14.5004H3.2002L3.73023 12.4304L4.00023 12.5004H26.0002L26.2702 12.4304Z" fill="#00448F"/>
<path d="M26.2699 12.43L25.9999 12.5H3.99998L3.72998 12.43L4.99994 7.5H6.99998V9.49998H13.9999V7.5H16V9.49998H22.9999V7.5H25L26.2699 12.43Z" fill="#DAEFF6"/>
<path d="M25 0.499756V7.49977H23V4.99975H16V7.49977H14V4.99975H7.00004V7.49977H5V0.499756H25Z" fill="#168DE2"/>
<path d="M29.5 24.9994V29.4994H0.5V24.9994L0.595039 24.6394L2 24.9994H13.5H14.5H15.5H16.5H28L29.405 24.6394L29.5 24.9994Z" fill="#168DE2"/>
<path d="M26.7802 14.4294L29.4052 24.6395L28.0002 24.9995H16.5002H15.5002H14.5002H13.5002H2.00018L0.595215 24.6395L3.20018 14.4995H26.5002L26.7802 14.4294Z" fill="#62BEFF"/>
<path d="M23 7.50002V9.50001H16V7.50002V5H23V7.50002Z" fill="#F9B544"/>
<path d="M14 7.50002V9.50001H7V7.50002V5H14V7.50002Z" fill="#F9B544"/>
<path d="M0.49998 30H29.5C29.7759 30 29.9999 29.776 29.9999 29.5V25C29.9999 24.958 29.9944 24.916 29.9839 24.8755L25.5 7.43701V0.49998C25.5 0.224004 25.276 0 25 0H4.99998C4.724 0 4.5 0.224004 4.5 0.49998V7.43695L0.0159961 24.8755C0.00550781 24.916 0 24.958 0 25V29.5C0 29.776 0.224004 30 0.49998 30ZM5.50002 1.00002H24.5V7.00002H23.5V4.99998C23.5 4.724 23.276 4.5 23 4.5H16C15.724 4.5 15.5 4.724 15.5 4.99998V6.99996H14.5V4.99998C14.5 4.724 14.276 4.5 14 4.5H7.00002C6.72404 4.5 6.50004 4.724 6.50004 4.99998V6.99996H5.50002V1.00002ZM22.5 5.50002V9H16.5V5.50002H22.5ZM13.5 5.50002V9H7.5V5.50002H13.5ZM5.38752 7.99998H6.50004V9.49998C6.50004 9.77596 6.72404 9.99996 7.00002 9.99996H14C14.276 9.99996 14.5 9.77596 14.5 9.49998V7.99998H15.5V9.49998C15.5 9.77596 15.724 9.99996 16 9.99996H23C23.276 9.99996 23.5 9.77596 23.5 9.49998V7.99998H24.6125L25.641 12H4.35902L5.38752 7.99998ZM4.09998 13H25.9L26.157 14H3.84498L4.09998 13ZM1.00002 25.063L3.58752 15H26.4125L29 25.063V29H1.00002V25.063Z" fill="#01384D"/>
<path d="M28 24.5002H16.5V25.5003H28V24.5002Z" fill="#01384D"/>
<path d="M15.5 24.5002H14.5V25.5003H15.5V24.5002Z" fill="#01384D"/>
<path d="M13.5 24.5002H2V25.5003H13.5V24.5002Z" fill="#01384D"/>
</g>
<defs>
<clipPath id="clip0_452_592">
<rect width="30" height="30" fill="white"/>
</clipPath>
</defs>
</svg>
