<svg width="11" height="10" viewBox="0 0 11 10" fill="none" xmlns="http://www.w3.org/2000/svg">
<path d="M0.242286 0.627025C0.308704 0.564317 0.387606 0.514565 0.474472 0.480618C0.561338 0.446672 0.654463 0.429199 0.748511 0.429199C0.842559 0.429199 0.935683 0.446672 1.02255 0.480618C1.10942 0.514565 1.18832 0.564317 1.25474 0.627025L5.03855 4.19181L8.82236 0.627025C8.88884 0.564418 8.96776 0.514756 9.05462 0.480873C9.14148 0.446991 9.23457 0.429552 9.32859 0.429552C9.4226 0.429552 9.51569 0.446991 9.60255 0.480873C9.68941 0.514756 9.76833 0.564418 9.83481 0.627025C9.90129 0.689631 9.95402 0.763956 9.99 0.845755C10.026 0.927555 10.0445 1.01523 10.0445 1.10377C10.0445 1.19231 10.026 1.27998 9.99 1.36178C9.95402 1.44358 9.90129 1.5179 9.83481 1.58051L6.04957 5.14395L9.83481 8.70739C9.90129 8.76999 9.95402 8.84432 9.99 8.92612C10.026 9.00792 10.0445 9.09559 10.0445 9.18413C10.0445 9.27267 10.026 9.36034 9.99 9.44214C9.95402 9.52394 9.90129 9.59826 9.83481 9.66087C9.76833 9.72348 9.68941 9.77314 9.60255 9.80702C9.51569 9.8409 9.4226 9.85834 9.32859 9.85834C9.23457 9.85834 9.14148 9.8409 9.05462 9.80702C8.96776 9.77314 8.88884 9.72348 8.82236 9.66087L5.03855 6.09608L1.25474 9.66087C1.18826 9.72348 1.10934 9.77314 1.02248 9.80702C0.935619 9.8409 0.842525 9.85834 0.748511 9.85834C0.654496 9.85834 0.561402 9.8409 0.474544 9.80702C0.387686 9.77314 0.308764 9.72348 0.242286 9.66087C0.175808 9.59826 0.123074 9.52394 0.0870963 9.44214C0.0511185 9.36034 0.0326009 9.27267 0.0326009 9.18413C0.0326009 9.09559 0.0511185 9.00792 0.0870963 8.92612C0.123074 8.84432 0.175808 8.76999 0.242286 8.70739L4.02753 5.14395L0.242286 1.58051C0.1757 1.51796 0.122871 1.44365 0.0868256 1.36184C0.0507801 1.28004 0.0322266 1.19234 0.0322266 1.10377C0.0322266 1.0152 0.0507801 0.927495 0.0868256 0.845688C0.122871 0.763881 0.1757 0.689574 0.242286 0.627025Z" fill="white"/>
</svg>
