<svg width="15" height="18" viewBox="0 0 15 18" fill="none" xmlns="http://www.w3.org/2000/svg">
<circle cx="7.64869" cy="4.64795" r="3.98169" stroke="#01384D" stroke-linecap="round" stroke-linejoin="round"/>
<path fill-rule="evenodd" clip-rule="evenodd" d="M1.33302 14.1676C1.33195 13.8877 1.39455 13.6112 1.51609 13.3591C1.89748 12.5963 2.97299 12.192 3.86544 12.009C4.50907 11.8716 5.1616 11.7799 5.81815 11.7344C7.03371 11.6276 8.25629 11.6276 9.47185 11.7344C10.1283 11.7804 10.7808 11.8721 11.4246 12.009C12.317 12.192 13.3925 12.5582 13.7739 13.3591C14.0183 13.8731 14.0183 14.4698 13.7739 14.9838C13.3925 15.7847 12.317 16.1509 11.4246 16.3263C10.7817 16.4693 10.1289 16.5637 9.47185 16.6085C8.48248 16.6924 7.4885 16.7077 6.49702 16.6543C6.26819 16.6543 6.04698 16.6543 5.81815 16.6085C5.16353 16.5642 4.51327 16.4699 3.87307 16.3263C2.97299 16.1509 1.9051 15.7847 1.51609 14.9838C1.39517 14.7287 1.33263 14.4499 1.33302 14.1676Z" stroke="#01384D" stroke-linecap="round" stroke-linejoin="round"/>
</svg>
